<svg xmlns="http://www.w3.org/2000/svg" xmlns:xlink="http://www.w3.org/1999/xlink" width="72" height="80" viewBox="0 0 72 80"><defs><path id="u9mra" d="M657.83 736.34v13.85c0 4.38 2.65 8.23 6.64 9.83l5.7 2.25c.54.27.94.8.8 1.47.14.8-.4 1.2-1.06 1.2h-31.87c-.67 0-1.2-.4-1.33-1.07-.13-.67.26-1.2.8-1.46l5.7-2.26a10.36 10.36 0 0 0 6.65-9.83v-14.6c0-.23.04-.43.11-.6a12.04 12.04 0 0 0-3.3-7.64l-8.23-8.64-.07-.07-8.12-8.52a10.44 10.44 0 0 1-5.5 1.56 10.66 10.66 0 0 1-10.62-10.63c0-5.84 4.78-10.63 10.63-10.63 5.39 0 9.87 4.08 10.53 9.3h28.56l3.54-9.83c.13-.4.4-.66.93-.8l13.28-3.98c.66-.26 1.46.13 1.6.93.26.67-.14 1.46-.94 1.6l-12.61 3.85-2.96 8.23h17.83c.53 0 1.06.27 1.2.8.26.53.13 1.06-.27 1.46l-24.17 25.37a12 12 0 0 0-3.32 8.23c0 .24-.05.45-.13.63zm7.9-33.83l-5.22 14.53a8.75 8.75 0 0 0 4.36-2.18 10.5 10.5 0 0 1 7.63-2.95l8.97-9.4zm-2.84 0h-36.4l4.9 5.05c.1.08.16.18.22.3l8.12 8.45c.7-.39 1.37-.88 2.03-1.45 1.99-2 4.78-3.19 7.3-3.05a7.9 7.9 0 0 1 5.84 3.18 4.63 4.63 0 0 0 2.78 2zm-34.56 5.72l-5.83-6.12c-.25-.25-.4-.55-.4-.88-.01-.18.03-.38.13-.58.13-.53.67-.8 1.2-.8h9.16a7.99 7.99 0 0 0-7.83-6.64 8 8 0 0 0-7.97 7.97 8 8 0 0 0 7.97 7.97c1.32 0 2.5-.26 3.57-.92zm21.5 18.8a15.82 15.82 0 0 1 2.81 7.35h2.8a14.47 14.47 0 0 1 3.98-8.76l10.1-10.63a8.3 8.3 0 0 0-2.66 1.73 11.3 11.3 0 0 1-7.3 3l-1.6 4.44c-.27.53-.8.93-1.33.93-.13 0-.26 0-.4-.14-.66-.26-1.06-1.06-.8-1.72l1.4-3.89a7.43 7.43 0 0 1-3.92-2.89c-.93-1.2-2.39-1.99-3.85-1.99a6.68 6.68 0 0 0-5.31 2.26 8.12 8.12 0 0 1-2.1 1.58l7.01 7.32a14.36 14.36 0 0 1 1.17 1.41zm5.6 23.16v-13.15h-2.65v13.15a13.56 13.56 0 0 1-7.84 12.08h18.2a13 13 0 0 1-7.7-12.08z"/></defs><g><g transform="translate(-614 -685)"><use fill="#fff" xlink:href="#u9mra"/></g></g></svg>