<svg xmlns="http://www.w3.org/2000/svg" xmlns:xlink="http://www.w3.org/1999/xlink" width="76" height="76" viewBox="0 0 76 76"><defs><path id="a" d="M1189.32 1212.81l-1.79 24.65-.01.1-.13 1.73-.84 11.56c0 .2 0 .4-.02.6l-.73 9.68v.01l-1.35 18.43a1.1 1.1 0 0 1-1.1 1.03l-19.71.19h-.01c-.4 0-.75-.21-.95-.53a1.1 1.1 0 0 1-.31-.66l-.69-7.05-13.74-4.41v11.35c0 .61-.5 1.11-1.12 1.11h-31.33c-.61 0-1.11-.5-1.11-1.11v-13.02c0-6.81 5.54-12.35 12.34-12.35h3.27v-.85a15.96 15.96 0 0 1-9.94-9.92 7.43 7.43 0 0 1-4.11-12.29v-5.97a19.3 19.3 0 0 1 19.26-19.25 19.3 19.3 0 0 1 19.26 19.25v5.68a7.3 7.3 0 0 1 2.11 5.34c0 3.75-2.8 6.89-6.46 7.36a15.97 15.97 0 0 1-10.05 9.85v.8h.44c1.99 0 3.96.31 5.86.91l.02.01 14.05 4.9-1.84-18.62-.01-.09-.17-1.77-2.61-26.43a4.39 4.39 0 0 1 .98-3.19l2.64-3.19a4.37 4.37 0 0 1 6.12-.59l3.19 2.63c.89.73 1.46 1.8 1.57 2.95l2.43 24.59.02.1.14 1.47 1.9-26.08a4.4 4.4 0 0 1 1.51-2.98l3.14-2.7a4.37 4.37 0 0 1 6.13.47l2.71 3.13a4.37 4.37 0 0 1 1.04 3.17zm-18.69 24.84l-10.06.97.06.6.07.68 10.05-.97-.05-.6zm-.22-2.22l-2.33-23.58a2.1 2.1 0 0 0-.76-1.43l-3.2-2.63a2.13 2.13 0 0 0-2.98.28l-2.64 3.19c-.36.43-.53 1-.48 1.56l2.33 23.58zm-21.64-7.67v-.44c-.86-.93-4.57-4.23-13.67-4.23-1.51 0-2.87.09-4.1.24 1.9 1.33 5.68 3.31 12.4 4.43h5.37zm-5.36 5.52l-3.66 5.24c.68.41 1.47.65 2.3.65h2.76a2.61 2.61 0 0 0 2.61-2.61v-3.45l-1.79 2.58c-.22.31-.57.48-.92.48-.22 0-.44-.07-.64-.21a1.1 1.1 0 0 1-.28-1.55l2.97-4.25a1.4 1.4 0 0 0-.65-.17h-12.45l-3.97 5.7c-.22.31-.57.48-.92.48-.22 0-.44-.07-.64-.21a1.1 1.1 0 0 1-.27-1.55l3.08-4.42h-6.85a1.3 1.3 0 0 0-1.31 1.31v4.8l2.86-4.1a1.12 1.12 0 0 1 1.83 1.28l-3.71 5.32c.45.35 1.01.57 1.63.57h2.76a4.52 4.52 0 0 0 4.29-3.21 2.78 2.78 0 0 1 5.32 0c.1.33.24.64.4.93l3.42-4.89a1.11 1.11 0 0 1 1.55-.28c.51.35.63 1.05.28 1.56zm-8.7-5.52a21.53 21.53 0 0 1-5.91-3.29c-.57.89-1.54 2.08-3.12 3.29zm17.81 8.53h-1.51v1.92c0 .97-.09 1.91-.26 2.84a5.2 5.2 0 0 0 3.51-5.97 1.95 1.95 0 0 1-1.74 1.21zm-.29-5.21v-1.09h-1.22v4.06h1.22v-2.64a.91.91 0 0 1 0-.33zm-34.06 2.97h1.02v-4.06h-1.02zm1.24 6.79c-.14-.86-.22-1.74-.22-2.63v-1.92h-1.31a1.9 1.9 0 0 1-1.6-.94c-.04.29-.05.59-.04.89a5.17 5.17 0 0 0 3.17 4.6zm15.69-19.98c11.81 0 15.55 5.19 15.71 5.41.12.19.19.4.2.62v.87h1.22v-2.67a17.05 17.05 0 0 0-17.03-17.01 17.05 17.05 0 0 0-17.03 17.01v2.67h1.02v-.87c.01-.22.08-.44.2-.62.16-.22 3.9-5.41 15.71-5.41zm-13.67 6.89a15.04 15.04 0 0 0 4.5-3.22c-2.7 1.01-4.04 2.26-4.5 2.78zm13.67 24.13c7.13 0 13-5.49 13.62-12.46a4.85 4.85 0 0 1-3.91 1.98h-2.76a6.76 6.76 0 0 1-6.43-4.8.55.55 0 0 0-.52-.38.54.54 0 0 0-.52.38 6.76 6.76 0 0 1-6.43 4.8h-2.76a4.83 4.83 0 0 1-3.91-1.98 14.23 14.23 0 0 0 .51 2.68 13.7 13.7 0 0 0 13.11 9.78zm0 2.24c-.98 0-1.94-.09-2.88-.27v2.66a2.81 2.81 0 0 0 5.61 0v-2.63c-.89.15-1.8.24-2.73.24zm10.6 21.73h-21.28v2.52h21.28zm0-5.92h-21.28v3.69h21.28zm15.74.19l-.48-4.84-.02-.09v-.1l-.27-2.7-15.01-5.23c-1.67-.54-3.4-.81-5.16-.81h-.44v.16a5.04 5.04 0 0 1-10.07 0v-.16h-3.27a10.13 10.13 0 0 0-10.11 10.12v11.9h5.57v-11.76a1.12 1.12 0 1 1 2.24 0v1.09h21.28v-1.09a1.12 1.12 0 0 1 1.46-1.07zm4.75-26.49c1.87-.18 3.7.36 5.18 1.51l-.4-3.98-10.05.97.4 4.05a7.22 7.22 0 0 1 4.87-2.55zm4.69 21.68l-7.6.77.55 5.52v.01l.68 6.94 5.41-.05zm.29-3.96l-8.28.79.17 1.71 7.99-.8zm.78-10.74l-.04-.21a5.07 5.07 0 0 0-8.92-2.73 5 5 0 0 0-1.13 3.7l.82 8.55 8.66-.83zm11.25 15.41l-10.07-.76-.97 13.22 10.14-.1zm.29-3.94l-10.08-.76-.12 1.72 10.07.76zm.82-11.31a5.04 5.04 0 0 0-10.08-.25l-.65 8.57 10.07.76zm.64-8.75l-10.07-.76-.3 4.06a7.22 7.22 0 0 1 5.23-1.68c1.88.14 3.59.98 4.85 2.37zm.26-3.52l-10.08-.76-.04.63-.05.66 10.07.76.05-.63zm1.38-27.4l-2.71-3.13a2.1 2.1 0 0 0-2.98-.23l-3.15 2.69c-.42.37-.69.9-.73 1.45l-1.72 23.64 10.07.76 1.72-23.63a2.12 2.12 0 0 0-.5-1.55z"/><path id="b" d="M1140.96 1243.53a5.62 5.62 0 0 1-10.89 0 2 2 0 0 1 1.95-2.53h6.99c.63 0 1.21.28 1.59.78a2 2 0 0 1 .36 1.75zm-2.24-.3h-6.41a3.38 3.38 0 0 0 6.41 0z"/></defs><g transform="translate(-1114 -1205)"><use fill="#fff" xlink:href="#a"/></g><g transform="translate(-1114 -1205)"><use fill="#fff" xlink:href="#b"/></g></svg>