<svg xmlns="http://www.w3.org/2000/svg" xmlns:xlink="http://www.w3.org/1999/xlink" width="79" height="82" viewBox="0 0 79 82"><defs><path id="a" d="M458.2 1265h-22.08a1.13 1.13 0 0 0 0 2.25h22.08c.62 0 1.13-.51 1.13-1.13 0-.62-.51-1.12-1.13-1.12z"/><path id="b" d="M458.2 1260h-22.08a1.13 1.13 0 0 0 0 2.25h22.08c.62 0 1.13-.51 1.13-1.13 0-.62-.51-1.12-1.13-1.12z"/><path id="c" d="M486.1 1214.67v20.88a3.95 3.95 0 0 1-3.94 3.94h-.96v29.2a8.43 8.43 0 0 1-4.35 7.37v5.54c0 .62-.51 1.12-1.13 1.12h-9.82c-.62 0-1.12-.5-1.12-1.12v-4.49h-34.53v4.49c0 .62-.5 1.12-1.12 1.12h-9.83c-.62 0-1.12-.5-1.12-1.12v-5.54a8.43 8.43 0 0 1-4.35-7.37v-29.2h-.89a3.95 3.95 0 0 1-3.94-3.94v-20.88a5.5 5.5 0 0 1 4.83-5.45v-1.06a5.16 5.16 0 0 1 5.16-5.16h57.05a5.17 5.17 0 0 1 5.16 5.16v1.05a5.5 5.5 0 0 1 4.9 5.46zm-4.9-3.19v5.56h.96c.6 0 1.18.14 1.69.38v-2.75a3.24 3.24 0 0 0-2.65-3.19zm-65.13-3.32v2.14h62.88v-2.14a2.91 2.91 0 0 0-2.91-2.91h-57.05a2.91 2.91 0 0 0-2.92 2.91zm62.88 58.84v-4.77h-6.03v4.77zm-8.28 0v-4.77h-6.03v4.77zm8.28-7.02v-5.05h-62.88v5.05h15.44c.62 0 1.13.51 1.13 1.13v7.01c0 1.24 1 2.25 2.24 2.25h25.26a2.25 2.25 0 0 0 2.25-2.25v-7.01c0-.62.5-1.13 1.12-1.13zm-62.88 7.02h6.04v-4.77h-6.04zm8.28 0h6.04v-4.77h-6.04zm19.86-54.46l-14.88 40.14h18.81l14.89-40.14zm10.1 40.14l14.88-40.14h-3.77l-14.88 40.14zm-43.06-38.01v2.75a3.99 3.99 0 0 1 1.69-.38h.89v-5.55a3.26 3.26 0 0 0-2.58 3.18zm1.69 22.58h4.47a1.7 1.7 0 0 0 1.69-1.7v-14.57c0-.94-.76-1.7-1.69-1.7h-4.47a1.7 1.7 0 0 0-1.69 1.7v14.57c0 .93.76 1.7 1.69 1.7zm4.47 2.24h-1.34v13.19h10.86l14.89-40.14h-25.75v4.5h1.34a3.94 3.94 0 0 1 3.94 3.94v14.57a3.95 3.95 0 0 1-3.94 3.94zm10.59 37.62h-5.76c-.62 0-1.23-.07-1.82-.2v3.56H428zm46.6-.2c-.59.13-1.19.2-1.82.2h-5.76v3.36h7.58zm4.33-7.66h-14.44a4.5 4.5 0 0 1-4.35 3.36h-25.26a4.49 4.49 0 0 1-4.34-3.36H416.1a6.17 6.17 0 0 0 6.14 5.61h50.54a6.18 6.18 0 0 0 6.15-5.61zm.02-29.76h-1.26a3.95 3.95 0 0 1-3.94-3.94v-14.57a3.94 3.94 0 0 1 3.94-3.94h1.26v-4.5h-7.36l-14.89 40.14h22.25zm4.9-18.51c0-.94-.76-1.7-1.69-1.7h-4.47c-.93 0-1.7.76-1.7 1.7v14.57c0 .93.77 1.7 1.7 1.7h4.47a1.7 1.7 0 0 0 1.69-1.7z"/></defs><g transform="translate(-408 -1202)"><use fill="#fff" xlink:href="#a"/><use fill="#fff" fill-opacity="0" stroke="#fff" stroke-miterlimit="50" stroke-width=".5" xlink:href="#a"/></g><g transform="translate(-408 -1202)"><use fill="#fff" xlink:href="#b"/><use fill="#fff" fill-opacity="0" stroke="#fff" stroke-miterlimit="50" stroke-width=".5" xlink:href="#b"/></g><g transform="translate(-408 -1202)"><use fill="#fff" xlink:href="#c"/><use fill="#fff" fill-opacity="0" stroke="#fff" stroke-miterlimit="50" stroke-width=".5" xlink:href="#c"/></g></svg>