<?xml version="1.0" encoding="UTF-8"?>
<svg width="20px" height="20px" viewBox="0 0 20 20" version="1.1" xmlns="http://www.w3.org/2000/svg" xmlns:xlink="http://www.w3.org/1999/xlink">
    <!-- Generator: Sketch 47.1 (45422) - http://www.bohemiancoding.com/sketch -->
    <title>icons/close gray/action</title>
    <desc>Created with Sketch.</desc>
    <defs></defs>
    <g id="Page-1" stroke="none" stroke-width="1" fill="none" fill-rule="evenodd">
        <g id="Попапы" transform="translate(-1031.000000, -265.000000)" fill="#000000">
            <g id="Бронирование-тура" transform="translate(529.000000, 233.000000)">
                <g id="icons/close-gray/action" transform="translate(494.000000, 24.000000)">
                    <path d="M18.8998202,16.5741161 L19.1691398,7.16378537 C19.1978369,6.16107593 18.4159866,5.36700936 17.4234916,5.36700936 L18.0176338,5.36700936 C17.0245077,5.36700936 16.1975399,6.17145338 16.1691398,7.16378537 L15.8998202,16.5741161 L6.50835021,16.5741161 C5.69322479,16.5741161 5.01345597,17.245689 5.01345597,18.0741161 C5.01345597,18.9083189 5.68274292,19.5741161 6.50835021,19.5741161 L15.8139615,19.5741161 L15.5648789,28.2773401 C15.5361818,29.2800496 16.3180321,30.0741161 17.3105271,30.0741161 L16.7163849,30.0741161 C17.709511,30.0741161 18.5364788,29.2696721 18.5648789,28.2773401 L18.8139615,19.5741161 L28.9327753,19.5741161 C29.7479007,19.5741161 30.4276695,18.9025433 30.4276695,18.0741161 C30.4276695,17.2399134 29.7583826,16.5741161 28.9327753,16.5741161 L18.8998202,16.5741161 Z" id="close-passive" transform="translate(17.720563, 17.720563) rotate(-45.000000) translate(-17.720563, -17.720563) "></path>
                </g>
            </g>
        </g>
    </g>
</svg>