<svg xmlns="http://www.w3.org/2000/svg" xmlns:xlink="http://www.w3.org/1999/xlink" width="75" height="80" viewBox="0 0 75 80"><defs><path id="a" d="M775.65 1008.19v1.33c0 1.46-1.2 2.66-2.67 2.66h-1.33v1.33c0 .8-.53 1.33-1.33 1.33s-1.33-.53-1.33-1.33v-1.33h-1.33a2.67 2.67 0 0 1-2.66-2.66v-1.33c0-1.46 1.2-2.66 2.66-2.66h1.33v-10.65c-.8 0-1.33-.53-1.33-1.33s.53-1.33 1.33-1.33v-10.64c-.8 0-1.33-.54-1.33-1.34 0-.79.53-1.33 1.33-1.33v-13.3h-1.33c-.8 0-1.33-.54-1.33-1.33v-25.29a3.92 3.92 0 0 1 3.99-3.99c2.27 0 4 1.73 4 3.99v25.29c0 .79-.54 1.33-1.34 1.33h-1.33v13.3c.8 0 1.33.54 1.33 1.33 0 .8-.53 1.34-1.33 1.34v10.64c.8 0 1.33.53 1.33 1.33s-.53 1.33-1.33 1.33v10.65h1.33c1.47 0 2.67 1.2 2.67 2.66zm-6.66-45.24h2.66v-4.8l-2.66 2.67zm0-5.86l2.66-2.66v-2.93l-2.66 2.66zm0-18.1v11.45l2.66-2.67v-8.78c0-.8-.53-1.33-1.33-1.33s-1.33.53-1.33 1.33zm3.99 69.2h-5.32v1.33h5.32z"/><path id="b" d="M839.65 1008.19v1.33c0 1.46-1.2 2.66-2.67 2.66h-1.33v1.33c0 .8-.53 1.33-1.33 1.33s-1.33-.53-1.33-1.33v-1.33h-1.33a2.67 2.67 0 0 1-2.66-2.66v-1.33c0-1.46 1.2-2.66 2.66-2.66h1.33v-10.65c-.8 0-1.33-.53-1.33-1.33s.53-1.33 1.33-1.33v-10.64c-.8 0-1.33-.54-1.33-1.34 0-.79.53-1.33 1.33-1.33v-13.3h-1.33c-.8 0-1.33-.54-1.33-1.33v-25.29a3.92 3.92 0 0 1 3.99-3.99c2.27 0 4 1.73 4 3.99v25.29c0 .79-.54 1.33-1.34 1.33h-1.33v13.3c.8 0 1.33.54 1.33 1.33 0 .8-.53 1.34-1.33 1.34v10.64c.8 0 1.33.53 1.33 1.33s-.53 1.33-1.33 1.33v10.65h1.33c1.47 0 2.67 1.2 2.67 2.66zm-6.66-45.24h2.66v-4.8l-2.66 2.67zm0-5.86l2.66-2.66v-2.93l-2.66 2.66zm0-18.1v11.45l2.66-2.67v-8.78c0-.8-.53-1.33-1.33-1.33s-1.33.53-1.33 1.33zm3.99 69.2h-5.32v1.33h5.32z"/><path id="c" d="M806.1 998.83l4.26 9.85a4.1 4.1 0 0 0 3.73 2.39c.53 0 1.06-.13 1.46-.39.67-.27.93-1.07.67-1.73-.27-.67-1.07-.94-1.73-.67-.67.27-1.47 0-1.73-.67l-4.26-9.84c-.27-.67-1.07-.93-1.73-.67-.67.27-.93 1.07-.67 1.73z"/><path id="d" d="M825.11 940.09c.8 2 .8 4.13-.13 6.13l-14.48 33.41 10.35 24.07c.8 2 .94 4.13.14 6.13a7.73 7.73 0 0 1-4.26 4.39c-.93.4-2 .66-3.06.66a8.14 8.14 0 0 1-7.32-4.79l-4.51-10.48-4.54 10.48a7.7 7.7 0 0 1-4.39 4.26c-.93.4-1.86.53-2.93.53a9.1 9.1 0 0 1-3.19-.66 7.91 7.91 0 0 1-4.13-10.52l10.43-24.06-7.41-17.18a.86.86 0 0 1-.22-.41l-2.93-6.79c-.05-.08-.07-.19-.09-.3l-3.77-8.74c-.8-2-.93-4.13-.13-6.13a7.68 7.68 0 0 1 4.25-4.39c2-.8 4.13-.93 6.13-.13a7.79 7.79 0 0 1 4.09 3.61c.15.25.3.51.43.78l1.6 3.73c.05.09.08.21.09.33l6.71 15.44 3.78-8.73c.01-.09.03-.17.06-.26l2.93-6.92c.06-.11.13-.21.21-.3l1.52-3.55a7.16 7.16 0 0 1 2.37-2.97 7.83 7.83 0 0 1 8.14-1.03c2 .8 3.46 2.4 4.26 4.39zm-24.75 22.76l-3.66-8.51-5.65 13.95 3.46 8zm-15.17-8.13l1.48 3.43 5.57-13.8-1.33-3.19c0-.13-.13-.13-.13-.27zm4.41 10.21l5.57-13.92-1.37-3.24-5.66 13.77zm-8.54-19.78l2.65 6.13 5.14-12.75a5.03 5.03 0 0 0-.87-.43 5.24 5.24 0 0 0-1.99-.4 5.9 5.9 0 0 0-2.13.4 5.39 5.39 0 0 0-2.8 7.05zm27.42 5.86l5.45 13.84 1.47-3.46-5.57-13.79-.37.86zm9.85 3.19l-5.43-13.63-.16.32-1.33 3.07 5.45 13.7zm-16.51 38.72l5.99-13.97c.06-.12.13-.23.21-.32l4.42-10.2-5.59-13.96-6.22 14.37-4.79 11.18c-.05.1-.11.19-.18.28l-10.6 24.47a5.23 5.23 0 0 0 2.79 6.92 5.45 5.45 0 0 0 7.05-2.8zm7.22-9.91l-5.75 13.25 5.45 12.63c1.2 2.67 4.26 4 7.06 2.8a5.37 5.37 0 0 0 2.79-7.05zm10.75-44.91a6.5 6.5 0 0 0-2.13-.4c-.97 0-1.88.25-2.67.71l5.01 12.58 2.58-5.97a5.22 5.22 0 0 0-2.79-6.92z"/><path id="e" d="M802.04 988.47c-.27.13-.53.27-.93.27s-.67-.14-1.07-.27l-2.39-1.06a2.71 2.71 0 0 1-1.47-3.46l3.73-8.52c.4-.93 1.2-1.73 2.13-2.13.93-.4 2.13-.4 3.06 0 .93.4 1.73 1.2 2.13 2.13.4.93.4 2.13 0 3.06l-3.73 8.52c-.26.66-.8 1.19-1.46 1.46zm-.93-2.53l3.72-8.52c.14-.26.14-.66 0-1.06-.13-.27-.4-.53-.66-.67-.27 0-.4-.13-.53-.13-.54 0-1.07.27-1.2.8l-3.73 8.52z"/><path id="f" d="M797.55 997.1c-.67-.26-1.46 0-1.73.67l-4.26 9.84c-.26.67-1.06.94-1.73.67-.66-.27-1.46 0-1.73.67-.26.66 0 1.46.67 1.73.53.13 1.06.26 1.59.26 1.6 0 3.06-.93 3.6-2.26l4.26-9.85c.26-.66 0-1.46-.67-1.73z"/></defs><g transform="translate(-765 -935)"><use fill="#fff" xlink:href="#a"/></g><g transform="translate(-765 -935)"><use fill="#fff" xlink:href="#b"/></g><g transform="translate(-765 -935)"><use fill="#fff" xlink:href="#c"/></g><g transform="translate(-765 -935)"><use fill="#fff" xlink:href="#d"/></g><g transform="translate(-765 -935)"><use fill="#fff" xlink:href="#e"/></g><g transform="translate(-765 -935)"><use fill="#fff" xlink:href="#f"/></g></svg>