<svg xmlns="http://www.w3.org/2000/svg" xmlns:xlink="http://www.w3.org/1999/xlink" width="20" height="18" viewBox="0 0 20 18"><defs><path id="a" d="M964.99 3698v8.66c0 1.47-1.21 2.7-2.68 2.7h-14.63a2.71 2.71 0 0 1-2.68-2.7V3698a2.69 2.69 0 0 1 2.68-2.68l1.94-.01 2.08-3.01c.12-.18.32-.3.54-.3h5.41c.22 0 .43.12.55.31l2.01 3 2.1.01c1.47 0 2.68 1.2 2.68 2.68zm-1.32 8.66h-.01V3698c0-.75-.62-1.37-1.36-1.37l-2.46-.02a.69.69 0 0 1-.54-.29l-2-2.99h-4.71l-2.08 3.01a.67.67 0 0 1-.54.29h-2.29c-.75 0-1.36.62-1.36 1.37v8.66c0 .75.61 1.38 1.36 1.38h14.63c.74 0 1.36-.63 1.36-1.38z"/><path id="b" d="M959.33 3701.67a4.66 4.66 0 1 1-9.33 0 4.66 4.66 0 0 1 9.33 0zm-1.31 0a3.36 3.36 0 0 0-6.7 0 3.36 3.36 0 0 0 6.7 0z"/><path id="c" d="M961 3699.26a.26.26 0 1 1 .51 0 .26.26 0 0 1-.51 0z"/><path id="d" d="M961.82 3698.91a.9.9 0 0 1-.91.91.9.9 0 0 1-.91-.91c0-.5.41-.91.91-.91a.9.9 0 0 1 .91.91zm-.5 0c0-.22-.19-.4-.41-.4a.4.4 0 0 0-.4.4c0 .22.17.41.4.41s.41-.19.41-.41z"/></defs><g transform="translate(-945 -3692)"><use fill="#744d4d" xlink:href="#a"/></g><g transform="translate(-945 -3692)"><use fill="#744d4d" xlink:href="#b"/></g><g transform="translate(-945 -3692)"><use fill="#744d4d" xlink:href="#c"/></g><g transform="translate(-945 -3692)"><use fill="#744d4d" xlink:href="#d"/></g></svg>