<svg xmlns="http://www.w3.org/2000/svg" xmlns:xlink="http://www.w3.org/1999/xlink" width="80" height="64" viewBox="0 0 80 64"><defs><path id="a" d="M842 1226.12v41.47a6.83 6.83 0 0 1-6.83 6.82h-66.34a6.83 6.83 0 0 1-6.83-6.82v-41.47a6.83 6.83 0 0 1 5.53-6.7v-1.59a4.07 4.07 0 0 1 4.06-4.07h2.76a4.07 4.07 0 0 1 4.06 4.07v1.46h4.93l3.5-5.25a6.82 6.82 0 0 1 5.68-3.04h18.96a6.82 6.82 0 0 1 5.68 3.04l3.5 5.25h14.51a6.84 6.84 0 0 1 6.83 6.83zm-71.88-8.29v1.46h5.7v-1.46c0-.81-.66-1.47-1.47-1.47h-2.76c-.81 0-1.47.66-1.47 1.47zm69.29 8.29c0-2.34-1.9-4.23-4.24-4.23h-15.2a1.3 1.3 0 0 1-1.08-.58l-3.89-5.83a4.22 4.22 0 0 0-3.52-1.89h-18.96c-1.42 0-2.74.71-3.52 1.89l-3.89 5.83a1.3 1.3 0 0 1-1.08.58h-15.2a4.23 4.23 0 0 0-4.24 4.23v41.47c0 2.33 1.9 4.23 4.24 4.23h66.34c2.34 0 4.24-1.9 4.24-4.23z"/><path id="b" d="M824.06 1245.03a22.05 22.05 0 0 1-22.03 22.03 22.05 22.05 0 0 1-22.03-22.03 22.05 22.05 0 0 1 22.03-22.03 22.05 22.05 0 0 1 22.03 22.03zm-2.59 0a19.46 19.46 0 0 0-19.44-19.44 19.46 19.46 0 0 0-19.44 19.44 19.46 19.46 0 0 0 19.44 19.44 19.46 19.46 0 0 0 19.44-19.44z"/><path id="c" d="M813.54 1236.12a1.3 1.3 0 0 0-.38 1.79 13.93 13.93 0 0 1-11.66 21.5 13.93 13.93 0 0 1-13.91-13.91 13.93 13.93 0 0 1 21.91-11.38 1.3 1.3 0 0 0 1.81-.31 1.3 1.3 0 0 0-.32-1.81 16.52 16.52 0 0 0-25.99 13.5c0 9.1 7.4 16.5 16.5 16.5a16.52 16.52 0 0 0 13.83-25.5 1.3 1.3 0 0 0-1.79-.38z"/><path id="d" d="M802.44 1250.89a5.45 5.45 0 0 1 0-10.89 5.45 5.45 0 0 1 0 10.89zm0-2.6a2.86 2.86 0 0 0 0-5.7 2.86 2.86 0 0 0 0 5.7z"/><path id="e" d="M804.69 1236.94a1.3 1.3 0 0 0 1.61-.87 1.3 1.3 0 0 0-.87-1.62c-1.01-.3-2.07-.45-3.13-.45a1.3 1.3 0 1 0 0 2.59c.81 0 1.62.12 2.39.35z"/><path id="f" d="M793.59 1245.3a1.3 1.3 0 1 0-2.59 0c0 4.81 3.22 9.14 7.83 10.51.13.04.25.06.38.06a1.3 1.3 0 0 0 .36-2.54 8.43 8.43 0 0 1-5.98-8.03z"/><path id="g" d="M809.98 1251.92a1.28 1.28 0 0 0 1.78-.44 10.92 10.92 0 0 0-.4-11.93 1.3 1.3 0 0 0-1.81-.32 1.3 1.3 0 0 0-.32 1.81 8.42 8.42 0 0 1 .31 9.11c-.37.61-.17 1.41.44 1.77z"/><path id="h" d="M834.89 1231.44a5.45 5.45 0 1 1-5.45-5.44c3 0 5.45 2.44 5.45 5.44zm-2.6 0a2.86 2.86 0 0 0-5.7 0 2.86 2.86 0 0 0 5.7 0z"/><path id="i" d="M773.3 1233c-.72 0-1.3.58-1.3 1.3v33.17a1.3 1.3 0 1 0 2.59 0v-33.17c0-.72-.58-1.3-1.29-1.3z"/><path id="j" d="M773.3 1225c-.72 0-1.3.58-1.3 1.3v2.76a1.3 1.3 0 1 0 2.59 0v-2.76c0-.72-.58-1.3-1.29-1.3z"/></defs><g transform="translate(-762 -1211)"><use fill="#fff" xlink:href="#a"/></g><g transform="translate(-762 -1211)"><use fill="#fff" xlink:href="#b"/></g><g transform="translate(-762 -1211)"><use fill="#fff" xlink:href="#c"/></g><g transform="translate(-762 -1211)"><use fill="#fff" xlink:href="#d"/></g><g transform="translate(-762 -1211)"><use fill="#fff" xlink:href="#e"/></g><g transform="translate(-762 -1211)"><use fill="#fff" xlink:href="#f"/></g><g transform="translate(-762 -1211)"><use fill="#fff" xlink:href="#g"/></g><g transform="translate(-762 -1211)"><use fill="#fff" xlink:href="#h"/></g><g transform="translate(-762 -1211)"><use fill="#fff" xlink:href="#i"/></g><g transform="translate(-762 -1211)"><use fill="#fff" xlink:href="#j"/></g></svg>