<svg xmlns="http://www.w3.org/2000/svg" xmlns:xlink="http://www.w3.org/1999/xlink" width="80" height="81" viewBox="0 0 80 81"><defs><path id="x0hta" d="M1275.49 730.82c0 6.22-1.72 12.29-4.98 17.55a1.26 1.26 0 1 1-2.14-1.32c1.1-1.76 2-3.63 2.7-5.56a26.3 26.3 0 0 1-5.86 4.77 1.26 1.26 0 1 1-1.31-2.14c4.4-2.68 7.3-6.02 8.48-9.62a30.38 30.38 0 0 1-7.99 2.42c-.36 2.96-1 5.82-1.9 8.56a1.26 1.26 0 1 1-2.39-.8 42.14 42.14 0 0 0 1.7-7.3c-3.58.58-7.64.98-11.97 1.2-.15 2.9-.38 5.7-.69 8.3a1.26 1.26 0 0 1-2.5-.3c.3-2.47.53-5.13.67-7.9a155.73 155.73 0 0 1-10.48 0c.2 3.9.56 7.55 1.06 10.81 1.37.12 2.77.18 4.18.18a1.26 1.26 0 0 1 0 2.5c-1.26 0-2.51-.04-3.75-.13l.25 1.27c1.43 6.87 3.05 8.42 3.5 8.42.43 0 1.95-1.4 3.34-7.64a1.26 1.26 0 0 1 2.45.55c-.67 3.01-1.44 5.3-2.32 6.9a30.91 30.91 0 0 0 9.57-2.7l-1.19-4.76-6.68-2.28a1.26 1.26 0 0 1 0-2.37l6.68-2.28 1.89-7.56a1.26 1.26 0 0 1 2.44 0l1.89 7.56 6.67 2.28a1.26 1.26 0 0 1 0 2.37l-6.67 2.28-.55 2.2c.9-.62 1.79-1.3 2.63-2.02a1.26 1.26 0 1 1 1.64 1.9 33.3 33.3 0 0 1-5.15 3.64l-.46 1.84a1.26 1.26 0 0 1-2.44 0l-.08-.32a33.42 33.42 0 1 1-20.27-63.26v-6.1c0-.7.56-1.26 1.25-1.26h4.1v-5.44a1.26 1.26 0 1 1 2.52 0v5.44h4.1c.7 0 1.26.56 1.26 1.26v6.1a33.47 33.47 0 0 1 26.8 32.76zm-20.11 21.1c.4.15.7.48.81.9l.84 3.34.83-3.35c.1-.41.41-.74.82-.88l3.84-1.32-3.84-1.3c-.4-.15-.71-.48-.82-.9l-.83-3.34-.84 3.35c-.1.41-.4.74-.81.88l-3.84 1.31zm-17.41-54.27a33.59 33.59 0 0 1 8.2 0v-4.44h-8.2zm7.86 11.95l-.25-1.27c-1.43-6.87-3.05-8.42-3.5-8.42-.46 0-2.08 1.55-3.51 8.42l-.25 1.27a53.25 53.25 0 0 1 7.5 0zm-3.76 2.37c-1.41 0-2.8.06-4.18.18-.5 3.26-.85 6.91-1.06 10.8a155.5 155.5 0 0 1 10.48 0c-.2-3.89-.56-7.54-1.05-10.8a50.88 50.88 0 0 0-4.19-.18zm-16.02.08a46.59 46.59 0 0 1 9.67-2.2c.12-.7.25-1.38.39-2.03.67-3.22 1.44-5.69 2.33-7.4-5.02 1.4-9.4 5.66-12.39 11.63zm8.07 18.77c0-1.77.03-3.52.09-5.24-4.44.23-8.57.66-12.15 1.27a47.4 47.4 0 0 0 0 7.94c3.58.6 7.71 1.04 12.15 1.27-.06-1.72-.1-3.47-.1-5.24zm-11.77 6.57c.45 3.2 1.23 6.22 2.28 8.97a42.29 42.29 0 0 0 10.68 2.85c-.47-3.24-.8-6.83-1-10.63-4.33-.22-8.39-.62-11.96-1.2zm12.96-24.96a42.29 42.29 0 0 0-10.68 2.85 41.64 41.64 0 0 0-2.28 8.97c3.57-.57 7.63-.97 11.96-1.2.2-3.8.53-7.38 1-10.62zm-22.24 7.72a26.1 26.1 0 0 1 5.6-4.6c1.26-.8 2.6-1.51 4.01-2.15a35 35 0 0 1 3.19-6.02 27.03 27.03 0 0 1 4.34-5.1 31.07 31.07 0 0 0-17.14 17.87zm-1.3 7a30.38 30.38 0 0 1 7.98-2.43c.34-2.74.91-5.39 1.7-7.9-.5.28-.98.56-1.45.85-4.25 2.66-7.07 5.94-8.23 9.47zm7.73 7.16a50.2 50.2 0 0 1 0-6.98c-6.8 1.43-8.33 3.04-8.33 3.49 0 .45 1.54 2.06 8.33 3.49zm-7.73.19c1.16 3.53 3.98 6.81 8.23 9.47.47.3.95.57 1.44.84a45.26 45.26 0 0 1-1.69-7.89l-.67-.13a30.38 30.38 0 0 1-7.31-2.3zm18.44 24.86a27.04 27.04 0 0 1-4.34-5.1 35.01 35.01 0 0 1-3.19-6.02 34.55 34.55 0 0 1-4.01-2.14 26.1 26.1 0 0 1-5.6-4.61 31.07 31.07 0 0 0 17.14 17.87zm5.9-5.54c-.14-.65-.27-1.33-.4-2.02a46.59 46.59 0 0 1-9.66-2.21c3 5.97 7.37 10.23 12.4 11.64-.9-1.72-1.67-4.19-2.34-7.41zm11.4-23c0-1.81-.03-3.6-.09-5.35a153.54 153.54 0 0 0-10.7 0 153.61 153.61 0 0 0 0 10.7 153.54 153.54 0 0 0 10.7 0c.06-1.76.1-3.55.1-5.35zm10.59-18.77c-3-5.97-7.38-10.23-12.4-11.63.9 1.71 1.67 4.18 2.34 7.4.14.65.26 1.33.39 2.02a46.6 46.6 0 0 1 9.67 2.21zm-8.27 11c4.33.23 8.4.63 11.97 1.2a41.64 41.64 0 0 0-2.29-8.97 42.29 42.29 0 0 0-10.67-2.85c.46 3.24.8 6.83 1 10.63zm12.42 7.77c0-1.35-.05-2.67-.16-3.97a108 108 0 0 0-12.15-1.27 155.55 155.55 0 0 1 0 10.48c4.43-.23 8.56-.66 12.15-1.27.1-1.3.16-2.63.16-3.97zm3.23-15.28a26.08 26.08 0 0 1 5.6 4.61 31.07 31.07 0 0 0-17.15-17.87 27.04 27.04 0 0 1 4.35 5.1 35 35 0 0 1 3.18 6.02c1.41.64 2.76 1.35 4.02 2.14zm-.41 9.31c3.16.66 5.6 1.42 7.3 2.3-1.15-3.54-3.97-6.82-8.22-9.48-.47-.3-.95-.57-1.45-.84.78 2.5 1.35 5.15 1.7 7.89l.67.13zm7.9 5.97c0-.45-1.53-2.06-8.32-3.49a50.22 50.22 0 0 1 0 6.98c6.79-1.43 8.32-3.04 8.32-3.49z"/><path id="x0htb" d="M1281 695.98c0 .53-.35 1.01-.85 1.18l-6.7 2.29-1.89 7.55a1.26 1.26 0 0 1-2.44 0l-1.9-7.55-6.69-2.29a1.26 1.26 0 0 1 0-2.37l6.7-2.28 1.89-7.56a1.26 1.26 0 0 1 2.44 0l1.9 7.56 6.69 2.28c.5.17.85.65.85 1.19zm-5.16 0l-3.85-1.32c-.4-.13-.71-.47-.81-.88l-.84-3.34-.84 3.34c-.1.41-.4.75-.81.88l-3.86 1.32 3.86 1.3c.4.15.7.48.81.9l.84 3.34.84-3.35c.1-.41.4-.74.81-.88z"/><path id="x0htc" d="M1222.32 701.25c0 .53-.35 1.01-.85 1.18l-6.7 2.29-1.89 7.55a1.26 1.26 0 0 1-2.44 0l-1.9-7.55-6.69-2.29c-.5-.17-.85-.65-.85-1.18 0-.54.35-1.02.85-1.2l6.7-2.27 1.89-7.56a1.26 1.26 0 0 1 2.44 0l1.9 7.56 6.69 2.28c.5.17.85.65.85 1.19zm-5.16 0l-3.85-1.32c-.4-.13-.71-.47-.81-.88l-.84-3.34-.84 3.34c-.1.41-.4.75-.81.88l-3.86 1.32 3.86 1.3c.4.15.7.48.81.9l.84 3.34.84-3.35c.1-.41.4-.74.81-.88z"/></defs><g><g transform="translate(-1201 -684)"><use fill="#fff" xlink:href="#x0hta"/></g><g transform="translate(-1201 -684)"><use fill="#fff" xlink:href="#x0htb"/></g><g transform="translate(-1201 -684)"><use fill="#fff" xlink:href="#x0htc"/></g></g></svg>