<svg xmlns="http://www.w3.org/2000/svg" xmlns:xlink="http://www.w3.org/1999/xlink" width="80" height="80" viewBox="0 0 80 80"><defs><path id="z1lda" d="M984.58 727l1.6 23.3c0 5.94-4.76 10.7-10.6 10.7-4.73 0-8.81-3.04-10.17-7.56l-4.67-14.15a8 8 0 0 1-13.79.79 8 8 0 0 1-13.6-.44l-4.56 13.83a10.62 10.62 0 0 1-20.76-3.08l1.57-23a17.17 17.17 0 0 1-2.56-9.01 17.3 17.3 0 0 1 17.29-17.3 17.2 17.2 0 0 1 10.94 3.92h11.68v-16.67a7.34 7.34 0 0 1 14.67 0v3.34a4 4 0 0 0 8 0V681h2.67v10.67a6.67 6.67 0 0 1-13.34 0v-3.34a4.67 4.67 0 0 0-9.33 0V705h9c3-2.5 6.85-4 11.04-4a17.3 17.3 0 0 1 17.3 17.29c0 3.18-.88 6.14-2.38 8.7zm-14.92-23.33c-3.47 0-6.66 1.22-9.17 3.25l-.48.41v.01a14.77 14.77 0 0 0-2.44 2.74l-.06.09a14.64 14.64 0 0 0 12.15 22.75 14.54 14.54 0 0 0 9.64-3.66l.53-.48c.85-.84 1.6-1.79 2.24-2.85l.57-.93a14.64 14.64 0 0 0-12.98-21.33zm-31.21 4a17.15 17.15 0 0 1 .96 20.05h.01a8.08 8.08 0 0 1 1.8 0l.33.06a8 8 0 0 1 1.36.34c.16.05.32.1.47.17l.16.08c.4.17.78.38 1.14.62l.09.06a7.65 7.65 0 0 1 1.11.91l.2.2.36.4c.17.21.34.43.49.65l.02.04.03-.04a8 8 0 0 1 .48-.65l.36-.39.2-.22a7.77 7.77 0 0 1 1.1-.9l.13-.08c.34-.22.7-.42 1.08-.59l.2-.1.45-.16a8.84 8.84 0 0 1 1.38-.34l.33-.05a7.92 7.92 0 0 1 2.33.07h.07a17.25 17.25 0 0 1 .93-20.14zm-28.74 10.7c0 1.8.34 3.51.93 5.1l1.5 2.46A14.51 14.51 0 0 0 924.5 733c7.98-.1 14.45-6.6 14.45-14.61 0-8.07-6.56-14.63-14.62-14.63a14.64 14.64 0 0 0-14.62 14.63zm22.77 15.4a17.27 17.27 0 0 1-7.85 1.9l-.15-.01h-.15c-4.8 0-9.13-1.96-12.27-5.12l-1.37 19.94a7.94 7.94 0 0 0 15.56 2.2zm13.03 2.97c.07-.31.1-.63.1-.95l-.01-.28a5.39 5.39 0 0 0-.46-2.03l-.06-.1a5.26 5.26 0 0 0-.42-.75c-.1-.15-.22-.28-.34-.42-.1-.11-.18-.23-.29-.34-.2-.2-.43-.38-.66-.54l-.11-.1a5.33 5.33 0 0 0-.87-.46l-.03-.02c-.3-.13-.61-.22-.93-.29l-.07-.02a5.34 5.34 0 0 0-2.1 0c-1 .2-1.94.7-2.7 1.47l-.32.32a5.28 5.28 0 0 0-1.29 3.44 5.34 5.34 0 0 0 10.56 1.07zm13.44-1.07c0-.71-.14-1.38-.4-2l-.07-.18-.18-.33c-.07-.12-.12-.25-.2-.36-.08-.13-.18-.25-.28-.38a5.16 5.16 0 0 0-1-1c-.1-.07-.19-.15-.3-.21a5.25 5.25 0 0 0-.73-.4l-.3-.12c-.2-.08-.41-.14-.62-.2l-.3-.06a5.29 5.29 0 0 0-2.02.01l-.1.03c-.3.07-.6.16-.9.28l-.07.04c-.3.13-.57.28-.83.45l-.15.12c-.22.16-.43.33-.62.51-.12.12-.21.25-.32.38-.1.12-.22.24-.31.38-.16.23-.3.49-.43.75l-.05.1c-.28.62-.44 1.3-.46 2.02l-.01.29a5.34 5.34 0 0 0 10.65-.12zm23.08-5.32l-.52.5a17.1 17.1 0 0 1-11.93 4.82c-2.75 0-5.43-.66-7.85-1.9l6.22 18.87a7.95 7.95 0 0 0 15.56-2.25l-1.38-20.14-.1.1z"/><path id="z1ldb" d="M945.62 714.34h4a1.33 1.33 0 1 0 0-2.67h-4a1.33 1.33 0 1 0 0 2.67z"/><path id="z1ldc" d="M973.62 717.67a4.67 4.67 0 1 1 9.34 0 4.67 4.67 0 0 1-9.34 0zm2.67 0a2 2 0 1 0 4 0 2 2 0 0 0-4 0z"/><path id="z1ldd" d="M960.96 713a4.67 4.67 0 1 1-.01 9.34 4.67 4.67 0 0 1 0-9.34zm0 2.67a2 2 0 1 0 0 4 2 2 0 0 0 0-4z"/><path id="z1lde" d="M914.96 720.05v-3.43a2.29 2.29 0 0 1 2.29-2.29h3.04v-3.04a2.29 2.29 0 0 1 2.29-2.29h3.43a2.29 2.29 0 0 1 2.28 2.29v3.04h3.05a2.29 2.29 0 0 1 2.29 2.29v3.43a2.29 2.29 0 0 1-2.29 2.28h-3.05v3.05a2.29 2.29 0 0 1-2.28 2.29h-3.43a2.29 2.29 0 0 1-2.29-2.29v-3.05h-3.04a2.29 2.29 0 0 1-2.29-2.28zm2.67-.38h5.33V725h2.67v-5.33h5.33V717h-5.33v-5.33h-2.67V717h-5.33v2.67z"/><path id="z1ldf" d="M974.3 725a4.67 4.67 0 1 1-9.35-.01 4.67 4.67 0 0 1 9.34 0zm-2.67 0a2 2 0 1 0-4 0 2 2 0 0 0 4 0z"/><path id="z1ldg" d="M964.96 710.34a4.67 4.67 0 1 1 9.34 0 4.67 4.67 0 0 1-9.34 0zm2.67 0a2 2 0 1 0 4 0 2 2 0 0 0-4 0z"/></defs><g><g transform="translate(-907 -681)"><use fill="#fff" xlink:href="#z1lda"/></g><g transform="translate(-907 -681)"><use fill="#fff" xlink:href="#z1ldb"/></g><g transform="translate(-907 -681)"><use fill="#fff" xlink:href="#z1ldc"/></g><g transform="translate(-907 -681)"><use fill="#fff" xlink:href="#z1ldd"/></g><g transform="translate(-907 -681)"><use fill="#fff" xlink:href="#z1lde"/></g><g transform="translate(-907 -681)"><use fill="#fff" xlink:href="#z1ldf"/></g><g transform="translate(-907 -681)"><use fill="#fff" xlink:href="#z1ldg"/></g></g></svg>