<svg xmlns="http://www.w3.org/2000/svg" xmlns:xlink="http://www.w3.org/1999/xlink" width="80" height="81" viewBox="0 0 80 81"><defs><path id="a" d="M1190.86 935.61l-33.54 10.32.01.33a5.34 5.34 0 0 1-4 5.15v8.15h21.3c1.33 0 2.52.54 3.32 1.47a41.72 41.72 0 0 1 6.99 10.64l.33.67c2.56 6.13 3.4 12.39 2.16 18.65-1.25 7.09-4.85 14.08-10.81 20.47a5.24 5.24 0 0 1-3.32 1.33h-42.59c-1.2 0-2.39-.53-3.19-1.33-5.47-5.82-8.97-12.16-10.49-18.63h-.02l-.27-1.06a32.6 32.6 0 0 1 2-19.43l.39-.8h.11a41.8 41.8 0 0 1 6.95-10.51 4.32 4.32 0 0 1 3.32-1.47h21.16v-8.15a5.35 5.35 0 0 1-3.13-2.27l-33.86 10.42h-.27c-.53 0-1.06-.4-1.33-.93-.26-.66.14-1.46.93-1.59l33.69-10.37-.02-.41c0-2.93 2.4-5.33 5.32-5.33 1.9 0 3.57 1.01 4.52 2.51l33.68-10.36c.66-.26 1.46.14 1.59.93.27.67-.13 1.47-.93 1.6zm-71.73 54.56h14.11l.13-15.84-.13-.13h-12.38a30.03 30.03 0 0 0-1.73 15.97zm64.01-15.97h-12.37l-.14 15.84 14.24.13c.93-5.32.27-10.78-1.73-15.97zm-8.51-11.97h-45.25c-.53 0-1.06.26-1.33.53a40.8 40.8 0 0 0-6 8.78h11.19c1.46 0 2.8 1.2 2.8 2.79v15.84a2.7 2.7 0 0 1-2.8 2.66h-13.59c1.5 5.77 4.74 11.44 9.73 16.77.27.4.8.53 1.33.53h42.59c.53 0 .93-.13 1.33-.53 4.99-5.33 8.23-11 9.73-16.77h-13.59c-1.47 0-2.8-1.2-2.8-2.79v-15.71c0-1.46 1.2-2.79 2.8-2.79h11.19a40.8 40.8 0 0 0-6-8.78c-.27-.4-.8-.53-1.33-.53zm-19.96-15.97c0-1.47-1.2-2.67-2.67-2.67a2.67 2.67 0 0 0-2.66 2.67c0 1.46 1.2 2.66 2.66 2.66 1.47 0 2.67-1.2 2.67-2.66z"/><path id="b" d="M1143.73 972h16.63c2 0 3.59 1.6 3.59 3.59v13.98a3.42 3.42 0 0 1-3.46 3.72h-16.76c-2 0-3.73-1.6-3.73-3.59v-14.11c0-1.99 1.6-3.59 3.73-3.59zm16.63 2.66h-16.63c-.54 0-1.07.4-1.07.93v13.98c0 .53.4.93 1.07.93h16.63c.53 0 .93-.4.93-.93v-13.98c0-.53-.4-.93-.93-.93z"/><path id="c" d="M1156.98 1004h-10.65c-.8 0-1.33.53-1.33 1.33s.53 1.33 1.33 1.33h10.65c.8 0 1.33-.53 1.33-1.33s-.53-1.33-1.33-1.33z"/><path id="d" d="M1160.3 997h-15.97c-.8 0-1.33.53-1.33 1.33s.53 1.33 1.33 1.33h15.97c.8 0 1.33-.53 1.33-1.33s-.53-1.33-1.33-1.33z"/></defs><g transform="translate(-1112 -933)"><use fill="#fff" xlink:href="#a"/></g><g transform="translate(-1112 -933)"><use fill="#fff" xlink:href="#b"/></g><g transform="translate(-1112 -933)"><use fill="#fff" xlink:href="#c"/></g><g transform="translate(-1112 -933)"><use fill="#fff" xlink:href="#d"/></g></svg>