<svg xmlns="http://www.w3.org/2000/svg" xmlns:xlink="http://www.w3.org/1999/xlink" width="70" height="80" viewBox="0 0 70 80"><defs><path id="a" d="M440.01 996.14v15.42c0 .7-.56 1.27-1.26 1.27h-24.49c-.69 0-1.26-.57-1.26-1.27v-15.42a8.81 8.81 0 0 1 6.34-8.46 12.97 12.97 0 0 1 7.17-23.68 12.9 12.9 0 0 1 12.84 12.94c0 4.47-2.26 8.41-5.68 10.74a8.8 8.8 0 0 1 6.34 8.46zm-9.06-6.25h-3.07l1.54 1.76zm-7.61 0l1.38 5.63 2.85-2.14-3.05-3.49zm7.93 3.49l2.58 1.94.45-4.64a4.16 4.16 0 0 0-.47-.24zm-4.76-6.04c5.68 0 10.31-4.66 10.31-10.4 0-5.73-4.63-10.39-10.31-10.39a10.37 10.37 0 0 0-10.32 10.39c0 5.74 4.63 10.4 10.32 10.4zm-10.98 22.95h3.71v-12.62c0-.71.56-1.28 1.26-1.28s1.26.57 1.26 1.28v12.62h6.4v-14.18l-3.46 2.6c-.22.17-.49.25-.75.25-.15 0-.29-.02-.43-.07-.4-.15-.7-.48-.8-.9l-1.96-8.03a6.25 6.25 0 0 0-5.23 6.18zm21.96 0v-14.15c0-1.16-.32-2.25-.87-3.18l-.47 4.85a1.27 1.27 0 0 1-2.01.9l-3.46-2.6v14.18z"/><path id="b" d="M434 998.64a1.06 1.06 0 0 0-.99-.64 1.05 1.05 0 0 0-.55 1.91c.37.24.86.22 1.21-.04.37-.28.51-.8.33-1.23-.03-.06.03.06 0 0z"/><path id="c" d="M426 974.64a1.05 1.05 0 0 0-.96-.64c-.42 0-.8.26-.96.64-.17.41-.06.9.28 1.19.35.29.85.33 1.23.09.43-.27.6-.82.41-1.28-.03-.06.03.06 0 0z"/><path id="d" d="M433.08 975.44c.16.39.56.65.98.64.47-.01.88-.34.99-.79.1-.4-.06-.83-.38-1.08a1.05 1.05 0 0 0-1.24-.01c-.39.28-.53.8-.35 1.24.02.06-.03-.07 0 0z"/><path id="e" d="M459.17 958.87h-13.89a4 4 0 0 1-3.99-3.98v-.53h-3.63l-6.39 4.06c-.21.13-.45.2-.69.2-.21 0-.43-.05-.62-.16a1.26 1.26 0 0 1-.66-1.12v-2.98h-1.31a4 4 0 0 1-3.99-3.98v-13.4a4 4 0 0 1 3.99-3.98h23.56a4 4 0 0 1 3.99 3.98v.53h13.3c2.2 0 3.99 1.78 3.99 3.98v13.4a4 4 0 0 1-3.99 3.98h-1.3v2.98c0 .47-.26.9-.67 1.12-.19.11-.41.16-.62.16-.24 0-.48-.07-.69-.2zm-17.88-7.07v-4.35h-9.57a1.3 1.3 0 0 1-1.29-1.28c0-.71.58-1.29 1.29-1.29h9.57v-2.14h-9.57c-.71 0-1.29-.57-1.29-1.28 0-.71.58-1.28 1.29-1.28h9.79a4 4 0 0 1 3.77-2.67h7.69v-.53c0-.78-.63-1.42-1.42-1.42h-23.56c-.78 0-1.42.64-1.42 1.42v13.4c0 .78.64 1.42 1.42 1.42h2.59c.71 0 1.28.57 1.28 1.28V955l4.73-3c.21-.14.45-.2.69-.2zm3.99 4.5h14.27c.24 0 .48.07.69.21l4.73 3v-1.92c0-.71.57-1.29 1.28-1.29h2.59c.79 0 1.42-.63 1.42-1.41v-13.4c0-.78-.63-1.42-1.42-1.42h-23.56c-.78 0-1.42.64-1.42 1.42v13.4c0 .78.64 1.42 1.42 1.41z"/><path id="f" d="M448.29 946.08h16.13c.71 0 1.28-.47 1.28-1.04 0-.57-.57-1.04-1.28-1.04h-16.13c-.71 0-1.29.47-1.29 1.04 0 .57.58 1.04 1.29 1.04z"/><path id="g" d="M465.7 951.04c0-.57-.57-1.04-1.28-1.04h-16.13c-.71 0-1.29.47-1.29 1.04 0 .57.58 1.04 1.29 1.04h16.13c.71 0 1.28-.47 1.28-1.04z"/><path id="h" d="M483.01 996.14v15.42c0 .7-.56 1.27-1.26 1.27h-24.49c-.69 0-1.26-.57-1.26-1.27v-15.42a8.81 8.81 0 0 1 6.34-8.46 12.97 12.97 0 0 1 7.17-23.68 12.9 12.9 0 0 1 12.84 12.94c0 4.47-2.26 8.41-5.68 10.74a8.8 8.8 0 0 1 6.34 8.46zM465 989.89a5.35 5.35 0 0 0 4.51 2.5c1.85 0 3.54-.98 4.5-2.5zm4.51-2.55c5.68 0 10.31-4.66 10.31-10.4 0-5.73-4.63-10.39-10.31-10.39a10.37 10.37 0 0 0-10.32 10.39c0 5.74 4.63 10.4 10.32 10.4zm-10.98 8.8v14.15h15.01v-12.62c0-.71.56-1.28 1.26-1.28s1.26.57 1.26 1.28v2.99h4.43v-4.52c0-2.61-1.6-4.85-3.86-5.79a7.87 7.87 0 0 1-7.12 4.59 7.87 7.87 0 0 1-7.13-4.59 6.27 6.27 0 0 0-3.85 5.79zm21.96 14.15v-7.08h-4.43v7.08z"/><path id="i" d="M469.08 975.44c.18.43.64.7 1.11.63.41-.07.75-.37.86-.78.1-.42-.07-.88-.43-1.12a1.07 1.07 0 0 0-1.32.13c-.29.3-.38.75-.22 1.14.02.06-.03-.07 0 0z"/><path id="j" d="M463.06 974.83a1.06 1.06 0 0 0-.16-.38c-.52-.77-1.75-.5-1.89.43-.12.84.8 1.49 1.54 1.06.39-.22.6-.67.51-1.11-.01-.07.01.07 0 0z"/><path id="k" d="M468.92 979.32a1.02 1.02 0 0 0-1.49 0 1.77 1.77 0 0 1-2.63 0 1.02 1.02 0 0 0-1.49 0 1.16 1.16 0 0 0 0 1.57 3.84 3.84 0 0 0 5.61 0c.42-.43.42-1.13 0-1.57z"/></defs><g transform="translate(-413 -933)"><use fill="#fff" xlink:href="#a"/></g><g transform="translate(-413 -933)"><use fill="#fff" xlink:href="#b"/></g><g transform="translate(-413 -933)"><use fill="#fff" xlink:href="#c"/></g><g transform="translate(-413 -933)"><use fill="#fff" xlink:href="#d"/></g><g transform="translate(-413 -933)"><use fill="#fff" xlink:href="#e"/></g><g transform="translate(-413 -933)"><use fill="#fff" xlink:href="#f"/></g><g transform="translate(-413 -933)"><use fill="#fff" xlink:href="#g"/></g><g transform="translate(-413 -933)"><use fill="#fff" xlink:href="#h"/></g><g transform="translate(-413 -933)"><use fill="#fff" xlink:href="#i"/></g><g transform="translate(-413 -933)"><use fill="#fff" xlink:href="#j"/></g><g transform="translate(-413 -933)"><use fill="#fff" xlink:href="#k"/></g></svg>