<svg xmlns="http://www.w3.org/2000/svg" xmlns:xlink="http://www.w3.org/1999/xlink" width="22" height="24" viewBox="0 0 22 24"><defs><path id="a" d="M318.99 144.36c.05.36-.06.67-.33.93l-3.09 3.08c-.14.16-.33.29-.55.4a2.25 2.25 0 0 1-.8.22l-.31.01a10.57 10.57 0 0 1-3.85-.9c-.96-.39-2.04-.99-3.25-1.78a24.44 24.44 0 0 1-3.87-3.26 26.41 26.41 0 0 1-2.7-3.08 21.95 21.95 0 0 1-1.72-2.71c-.44-.84-.76-1.59-.98-2.26-.22-.68-.37-1.26-.44-1.75a6.2 6.2 0 0 1-.07-1.62 2.25 2.25 0 0 1 .6-1.21l3.1-3.1c.22-.22.47-.33.75-.33.2 0 .38.06.53.17.16.12.29.27.4.44l2.49 4.73c.14.25.18.52.12.81-.07.3-.2.55-.4.75l-1.14 1.14a.35.35 0 0 0-.08.15.45.45 0 0 0-.04.18c.06.32.2.7.42 1.12.19.37.47.82.86 1.36.39.53.94 1.15 1.66 1.85.7.72 1.32 1.27 1.86 1.67.54.39 1 .69 1.36.87.37.19.65.3.84.34l.29.06c.03 0 .08-.01.15-.04a.35.35 0 0 0 .15-.08l1.33-1.35c.28-.25.61-.37.98-.37.26 0 .47.04.63.14h.02l4.5 2.65c.32.21.52.46.58.77z"/></defs><g transform="translate(-297 -126)"><use fill="#744d4d" xlink:href="#a"/></g></svg>