<svg xmlns="http://www.w3.org/2000/svg" xmlns:xlink="http://www.w3.org/1999/xlink" width="20" height="20" viewBox="0 0 20 20"><defs><path id="a" d="M1252.77 121.08a.78.78 0 0 1-.77-.77v-1.54c0-.42.35-.77.77-.77h1.54c.42 0 .77.35.77.77v1.54c0 .42-.35.77-.77.77z"/><path id="b" d="M1246.93 123c-.56 0-1.07.16-1.52.43a1.5 1.5 0 1 1 .44 2.91 1.5 1.5 0 0 1-1.42-1.93 2.92 2.92 0 0 0 2.5 4.46 2.94 2.94 0 0 0 0-5.87z"/><path id="c" d="M1251.77 126.15a4.62 4.62 0 1 1-9.24 0 4.62 4.62 0 0 1 9.24 0zm-10.77 0a6.16 6.16 0 1 0 12.32 0 6.16 6.16 0 0 0-12.32 0z"/><path id="d" d="M1257 119.75v12.5a3.75 3.75 0 0 1-3.75 3.75h-12.5a3.75 3.75 0 0 1-3.75-3.75v-12.5a3.75 3.75 0 0 1 3.75-3.75h12.5a3.75 3.75 0 0 1 3.75 3.75zm-1.54 0c0-1.22-.99-2.21-2.21-2.21h-12.5c-1.22 0-2.21.99-2.21 2.21v3.17h5.03a4.62 4.62 0 1 0 6.86 0h5.03z"/></defs><g transform="translate(-1237 -116)"><use fill="#fff" xlink:href="#a"/></g><g transform="translate(-1237 -116)"><use fill="#fff" xlink:href="#b"/></g><g transform="translate(-1237 -116)"><use fill="#fff" xlink:href="#c"/></g><g transform="translate(-1237 -116)"><use fill="#fff" xlink:href="#d"/></g></svg>