<svg xmlns="http://www.w3.org/2000/svg" xmlns:xlink="http://www.w3.org/1999/xlink" width="40" height="40" viewBox="0 0 40 40"><defs><path id="a" d="M1171 127a20 20 0 0 1 40 0 20 20 0 0 1-40 0z"/><path id="b" d="M1201.85 132.84l-.08-.15a12.1 12.1 0 0 0-2.28-2.65l-.02-.02-.02-.01-.01-.01h-.01c-.51-.49-.83-.82-.97-.98-.25-.32-.3-.65-.17-.97.1-.25.46-.77 1.08-1.57l.78-1.02c1.38-1.83 1.97-3 1.79-3.51l-.07-.12c-.05-.07-.17-.14-.37-.2a1.9 1.9 0 0 0-.77-.03l-3.44.02a.5.5 0 0 0-.24.01l-.16.04-.06.03-.04.03a.8.8 0 0 0-.14.13c-.04.06-.08.13-.11.21-.38.96-.81 1.86-1.28 2.69-.3.49-.57.92-.82 1.28a5.64 5.64 0 0 1-1.07 1.22c-.14.1-.24.15-.32.13l-.2-.05a.84.84 0 0 1-.27-.29 1.45 1.45 0 0 1-.14-.47l-.04-.48.01-.58.01-.5.02-.99.03-.84.01-.66c0-.23-.01-.41-.04-.54a1.7 1.7 0 0 0-.13-.38.57.57 0 0 0-.24-.29 1.34 1.34 0 0 0-.4-.16c-.43-.1-.96-.15-1.62-.16-1.48-.01-2.43.08-2.86.29a1.7 1.7 0 0 0-.45.36c-.14.17-.16.27-.06.28.48.08.82.25 1.02.52l.07.14c.05.11.11.29.17.55a9.2 9.2 0 0 1 .1 2.37c-.04.42-.07.74-.11.97a2.1 2.1 0 0 1-.31.83c-.02.03-.04.05-.06.05a.87.87 0 0 1-.32.06.77.77 0 0 1-.41-.16 3.36 3.36 0 0 1-.49-.46c-.17-.2-.37-.47-.58-.82a12.7 12.7 0 0 1-.67-1.25l-.19-.34c-.12-.23-.29-.55-.49-.98-.21-.43-.39-.84-.55-1.24a.86.86 0 0 0-.29-.38l-.06-.04a1.04 1.04 0 0 0-.47-.17l-3.27.02c-.34 0-.57.08-.69.23l-.04.07c-.03.04-.04.1-.04.19s.02.2.07.32a40.82 40.82 0 0 0 3.03 5.78c.41.64.84 1.24 1.27 1.81.43.56.71.93.85 1.08l.33.36.3.29c.19.19.47.42.84.69.37.27.78.53 1.23.79a6.51 6.51 0 0 0 3.32.83h1.38c.28-.03.49-.11.63-.26l.05-.06a1.1 1.1 0 0 0 .13-.55 3.8 3.8 0 0 1 .28-1.55c.08-.14.16-.26.26-.36.1-.09.16-.15.2-.17l.1-.04c.19-.06.42 0 .68.18.25.19.5.42.73.7.22.27.5.58.81.93.32.34.6.59.84.76l.24.14c.16.1.37.19.62.27.26.08.48.1.67.06l3.06-.05c.31 0 .54-.05.71-.15.17-.1.27-.21.3-.33.03-.12.03-.25.01-.41a1.33 1.33 0 0 0-.09-.31z"/></defs><g transform="translate(-1171 -107)"><use fill="#fff" xlink:href="#a"/></g><g transform="translate(-1171 -107)"><use fill="#946262" xlink:href="#b"/></g></svg>