<svg xmlns="http://www.w3.org/2000/svg" xmlns:xlink="http://www.w3.org/1999/xlink" width="20" height="18" viewBox="0 0 20 18"><defs><path id="a" d="M1348.35 125.33l18.91-7.29c.4-.16.82.19.73.61l-3.4 16.33a.54.54 0 0 1-.85.33l-4.63-3.36a.75.75 0 0 0-.93.02l-2.57 2.1c-.3.24-.75.1-.86-.26l-1.79-5.74-4.61-1.72c-.46-.18-.47-.84 0-1.02zm5.71 2.84l.98 3.43c.06.24.42.21.45-.04l.25-1.87c.05-.36.22-.68.48-.93l7.43-6.9c.14-.13-.02-.35-.19-.25l-9 5.54a.9.9 0 0 0-.4 1.02z"/></defs><g transform="translate(-1348 -118)"><use fill="#fff" xlink:href="#a"/></g></svg>