<svg xmlns="http://www.w3.org/2000/svg" xmlns:xlink="http://www.w3.org/1999/xlink" width="11" height="20" viewBox="0 0 11 20"><defs><path id="a" d="M1307.31 116h-2.57c-2.89 0-4.75 1.91-4.75 4.88v2.25h-2.59a.4.4 0 0 0-.4.4v3.26c0 .22.18.4.4.4h2.59v8.23c0 .22.18.4.4.4h3.37a.4.4 0 0 0 .41-.4v-8.23h3.02a.4.4 0 0 0 .4-.4v-3.26a.44.44 0 0 0-.11-.29.44.44 0 0 0-.29-.11h-3.02v-1.91c0-.92.22-1.38 1.41-1.38h1.73c.22 0 .41-.18.41-.41v-3.02a.42.42 0 0 0-.41-.41z"/></defs><g transform="translate(-1297 -116)"><use fill="#fff" xlink:href="#a"/></g></svg>